<svg xmlns="http://www.w3.org/2000/svg" width="25.322" height="25.606" viewBox="0 0 25.322 25.606">
  <g id="budgeting" transform="translate(-56.828 108.151)">
    <path id="Union_14" data-name="Union 14" d="M8.154,24.824a11.363,11.363,0,0,1,3.121-22.26h.008a.69.69,0,0,1,.5.16.706.706,0,0,1,.167.52c0,.554,0,2.69,0,2.847a7.876,7.876,0,0,1,2.122.449c0-.048.006-4.455-.008-5.694a.812.812,0,0,1,.4-.844s.992.037,1.057.043a10.115,10.115,0,0,1,6.2,2.762A10.172,10.172,0,0,1,25,10.278a.8.8,0,0,1-.158.588.778.778,0,0,1-.569.166H18.719l.007.028a7.778,7.778,0,0,1,.51,2.137h5.082a.606.606,0,0,1,.45.162.619.619,0,0,1,.155.455c0,.2-.016.412-.039.659a9.136,9.136,0,0,1-3.539,6.467.625.625,0,0,1-.46.161.65.65,0,0,1-.421-.269c-.169-.215-2.26-2.913-2.26-2.913l-.078.093a7.946,7.946,0,0,1-1.466,1.762.219.219,0,0,0,.016.181L18.328,22.1a.705.705,0,0,1,.184.518.669.669,0,0,1-.308.425A11.276,11.276,0,0,1,11.5,25.3,12.319,12.319,0,0,1,8.154,24.824Zm2.458-21.1A9.991,9.991,0,0,0,5.339,5.65,10.252,10.252,0,0,0,11.4,24.185c.083,0,.165,0,.248,0a9.836,9.836,0,0,0,5.327-1.667l.175-.12L15.7,20.514A7.865,7.865,0,1,1,10.825,6.09V3.712ZM4.73,13.932A6.666,6.666,0,1,0,11.4,7.277,6.668,6.668,0,0,0,4.73,13.932Zm14.533.537c-.006.022-.011.043-.016.064a7.787,7.787,0,0,1-.485,2.176.656.656,0,0,0,.116.257c.25.333.509.666.76.989l.223.287.774,1,.407.524.162-.153a8.089,8.089,0,0,0,2.564-5.069l.028-.225H19.3ZM15.207,1.33c0,.013,0,.024-.007.035a.474.474,0,0,0-.014.108v.613c0,1.56,0,3.171.007,4.757a.45.45,0,0,0,.092.254,7.933,7.933,0,0,1,2.843,2.759.656.656,0,0,0,.31.064s0,0,0,0q2.476-.005,4.95,0c.067,0,.131,0,.193-.009l.08,0,.2-.011-.012-.2a9.055,9.055,0,0,0-2.743-5.934,8.991,8.991,0,0,0-5.692-2.593l-.181-.012ZM11.025,18.674a.663.663,0,0,1-.183-.473c0-.129,0-.783,0-.783l-.195-.007A2.594,2.594,0,0,1,9.214,17a.559.559,0,0,1-.28-.423.51.51,0,0,1,.222-.514.592.592,0,0,1,.328-.117.419.419,0,0,1,.228.069,2.024,2.024,0,0,0,1.195.275c.242-.006.488-.005.727,0,.158,0,.317,0,.475,0a.9.9,0,1,0,.015-1.8c-.078,0-.257,0-.466,0-.371,0-.837,0-1.014,0a1.949,1.949,0,0,1-1.9-1.222,1.995,1.995,0,0,1,1.6-2.782l.5-.059v-.179c0-.077,0-.514,0-.652a.556.556,0,0,1,.549-.551H11.4a.568.568,0,0,1,.55.539c.007.143,0,.579,0,.652v.169l.168.03.2.032c.136.022.264.042.389.071a2.3,2.3,0,0,1,1.125.649.554.554,0,0,1,.021.8.541.541,0,0,1-.778,0,1.453,1.453,0,0,0-1.1-.419c-.155,0-.555,0-.883,0h-.446a.9.9,0,1,0,0,1.8c.209,0,1.36,0,1.723.022a2,2,0,0,1,.089,3.981l-.51.065s0,.631,0,.765a.57.57,0,0,1-.55.614h-.014A.512.512,0,0,1,11.025,18.674Z" transform="translate(57 -108)" fill="#cea348" stroke="#cea348" stroke-width="0.3"/>
  </g>
</svg>
