<svg xmlns="http://www.w3.org/2000/svg" width="24.199" height="22.201" viewBox="0 0 24.199 22.201">
  <g id="calendar" transform="translate(0.1 0.051)">
    <path id="Path_3143" data-name="Path 3143" d="M23.363,2.367a2.035,2.035,0,0,0-1.437-.551c-.356,0-.711,0-1.084,0h-.447A1.649,1.649,0,0,0,20.015.4,1.256,1.256,0,0,0,19.126.05h-.147a1.264,1.264,0,0,0-.645.171,1.144,1.144,0,0,0-.56.726,5.669,5.669,0,0,0-.053.853H6.277A1.672,1.672,0,0,0,5.92.418,1.277,1.277,0,0,0,5,.05H4.88a1.279,1.279,0,0,0-.831.3A1.434,1.434,0,0,0,3.6,1.633a.893.893,0,0,1,0,.135V1.8a.148.148,0,0,1-.008.017h0l-.4,0C2.84,1.8,2.478,1.8,2.121,1.824A2.882,2.882,0,0,0,1.1,2.053,1.887,1.887,0,0,0,.008,3.714C.089,2.383,0,5.773,0,12.685c0,2.4,0,4.959,0,7.254A1.993,1.993,0,0,0,1.019,21.78a2.583,2.583,0,0,0,.446.19c.068.024.136.048.2.074l.012,0H22.319l.011,0,.084-.03c.059-.021.117-.043.176-.061a1.987,1.987,0,0,0,1.4-1.806c0-.05,0-2.327,0-6.346,0-4.408,0-8.046,0-9.8A2.122,2.122,0,0,0,23.363,2.367Zm-18-.567H4.517a1.789,1.789,0,0,0-.008-.244c-.019-.248-.021-.4.164-.517A.631.631,0,0,1,5.2,1.033c.185.107.183.262.164.506A1.816,1.816,0,0,0,5.361,1.8ZM19.3,1.025c.2.108.2.272.185.531a2.018,2.018,0,0,0-.007.251h-.84a1.8,1.8,0,0,0-.012-.245c-.019-.21-.037-.39.145-.515A.632.632,0,0,1,19.3,1.025ZM3.609,3.729a2.08,2.08,0,0,0,.244.8,1.088,1.088,0,0,0,.978.52h0A.439.439,0,0,0,5.3,4.632a.444.444,0,0,0-.367-.482c-.394-.1-.421-.136-.422-.527,0-.212,0-.423,0-.64V2.747H17.72c0,.064,0,.128,0,.192,0,.2,0,.417,0,.627l0,.071a2.193,2.193,0,0,0,.064.558,1.207,1.207,0,0,0,1.129.853h0a.456.456,0,0,0,.1-.906c-.347-.076-.387-.123-.389-.468,0-.224,0-.448,0-.684V2.728H18.7c.509,0,2.265,0,3.136,0a1.114,1.114,0,0,1,1.242,1.245c0,.906,0,1.338,0,1.909v.1c-4.965,0-16.468,0-16.569.019a.446.446,0,0,0,.012.879c.1.015,12.647.017,16.557.016v6.522c0,.751-.278,1.031-1.025,1.031h-.722c-.511,0-1.021,0-1.531,0a1.733,1.733,0,0,0-1.863,1.859c0,.334,0,.668,0,1,0,.459,0,.918,0,1.378a.818.818,0,0,1-.9.895q-7.471,0-14.942,0A1.092,1.092,0,0,1,.92,18.411C.917,13.879.926,7.527.932,6.9c1.558,0,4.13,0,4.219-.021A.447.447,0,0,0,5.17,6.01c-.095-.024-2.95-.028-4.253-.028V5.917c0-.524,0-1.026,0-1.962A1.113,1.113,0,0,1,2.151,2.728H3.6c0,.086,0,.172,0,.258A5.292,5.292,0,0,0,3.609,3.729ZM18.856,16.262a.814.814,0,0,1,.9-.9c.291,0,.585,0,.877,0H22.37l-3.515,3.511v-.967C18.855,17.359,18.854,16.81,18.856,16.262ZM17.566,20.5h.006a2.317,2.317,0,0,0,1.754-.728c1.064-1.08,3.224-3.223,3.755-3.746V16.7c0,1.1,0,2.768,0,3.27A1.086,1.086,0,0,1,21.9,21.136H2.088a1.1,1.1,0,0,1-1.127-.791,1.069,1.069,0,0,1-.028-.161,2.732,2.732,0,0,0,1.537.318C8.564,20.5,13.22,20.5,17.566,20.5Z" transform="translate(0 0)" fill="#cea348" stroke="#cea348" stroke-width="0.2"/>
    <path id="Path_3144" data-name="Path 3144" d="M34.5,125.272a.827.827,0,0,0-.837.852c-.013.653-.013,1.31,0,1.95a.831.831,0,0,0,.864.849c.122,0,.244,0,.366,0h.284c.1,0,.2,0,.3,0h.275c.214,0,.429,0,.643,0a.853.853,0,0,0,.913-.863c.017-.623.017-1.27,0-1.923a.845.845,0,0,0-.858-.866C35.778,125.253,35.123,125.253,34.5,125.272Zm1.837.962v1.72H34.632v-1.72Z" transform="translate(-31.228 -116.645)" fill="#cea348" stroke="#cea348" stroke-width="0.2"/>
    <path id="Path_3145" data-name="Path 3145" d="M187.054,128.915h1.2c.211,0,.423,0,.633,0a.85.85,0,0,0,.907-.894c.01-.623.01-1.252,0-1.868a.844.844,0,0,0-.858-.891c-.614-.017-1.243-.017-1.92,0a.823.823,0,0,0-.86.829c-.022.686-.022,1.36,0,2A.829.829,0,0,0,187.054,128.915Zm.066-.976v-1.713h1.708v1.713Z" transform="translate(-173.357 -116.637)" fill="#cea348" stroke="#cea348" stroke-width="0.2"/>
    <path id="Path_3146" data-name="Path 3146" d="M110.8,128.93c.125,0,.252,0,.377,0h.868c.212,0,.431,0,.647,0a.851.851,0,0,0,.9-.875c.014-.613.014-1.251,0-1.9a.847.847,0,0,0-.869-.883c-.644-.016-1.289-.016-1.92,0a.815.815,0,0,0-.847.811c-.019.675-.019,1.359,0,2.032A.819.819,0,0,0,110.8,128.93Zm.12-.963v-1.721h1.685v1.721Z" transform="translate(-102.394 -116.654)" fill="#cea348" stroke="#cea348" stroke-width="0.2"/>
    <path id="Path_3147" data-name="Path 3147" d="M263.257,130.665c.331.007.659.011.982.011s.65,0,.964-.012a.831.831,0,0,0,.846-.868c.006-.218,0-.438,0-.652,0-.1,0-.2,0-.3s0-.19,0-.285c0-.217,0-.442,0-.663a.825.825,0,0,0-.835-.878c-.631-.019-1.3-.019-1.974,0a.806.806,0,0,0-.826.8c-.026.668-.027,1.351,0,2.032A.817.817,0,0,0,263.257,130.665Zm.112-.966v-1.713h1.709V129.7Z" transform="translate(-244.484 -118.276)" fill="#cea348" stroke="#cea348" stroke-width="0.2"/>
    <path id="Path_3148" data-name="Path 3148" d="M36.4,201.986c-.211,0-.425,0-.633,0H35.2c-.208,0-.422,0-.633,0a.852.852,0,0,0-.9.9c-.009.614-.009,1.242,0,1.864a.848.848,0,0,0,.9.9c.3,0,.6,0,.909,0s.613,0,.923,0a.86.86,0,0,0,.909-.868c.016-.633.016-1.279,0-1.92A.855.855,0,0,0,36.4,201.986Zm-.055.972v1.713H34.623v-1.713Z" transform="translate(-31.226 -188.125)" fill="#cea348" stroke="#cea348" stroke-width="0.2"/>
    <path id="Path_3149" data-name="Path 3149" d="M110.828,205.615c.213,0,.428,0,.637,0h.862c.121,0,.242,0,.363,0a.841.841,0,0,0,.88-.837c.019-.635.019-1.3,0-1.974a.836.836,0,0,0-.873-.844c-.6-.008-1.234-.009-1.887,0a.833.833,0,0,0-.876.837c-.018.648-.018,1.312,0,1.974A.838.838,0,0,0,110.828,205.615Zm.065-.975v-1.709h1.715v1.709Z" transform="translate(-102.37 -188.096)" fill="#cea348" stroke="#cea348" stroke-width="0.2"/>
    <path id="Path_3150" data-name="Path 3150" d="M186.092,203.216a.826.826,0,0,0,0,.084.464.464,0,0,0,.464.461.455.455,0,0,0,.479-.477c.007-.118.006-.239,0-.356,0-.03,0-.059,0-.089h1.732v1.734h-.317c-.467,0-.909,0-1.356-.006a.235.235,0,0,1-.1-.1.467.467,0,0,0-.578-.256.462.462,0,0,0-.322.544.849.849,0,0,0,.86.767c.283,0,.568.005.851.005l.886,0h.1a.864.864,0,0,0,.94-.92c.008-.586.008-1.2,0-1.814a.866.866,0,0,0-.936-.925c-.175,0-.351,0-.522,0-.306,0-.622.009-.932-.009a1.266,1.266,0,0,0-1.011.263,1.288,1.288,0,0,0-.25,1.033A.34.34,0,0,1,186.092,203.216Z" transform="translate(-173.3 -188.011)" fill="#cea348" stroke="#cea348" stroke-width="0.2"/>
  </g>
</svg>
