<svg xmlns="http://www.w3.org/2000/svg" width="24.398" height="18.4" viewBox="0 0 24.398 18.4">
  <path id="envelope" d="M24.006,16.22a2.191,2.191,0,0,1-.7,1.288A2.126,2.126,0,0,1,21.861,18H7.009c-1.632,0-3.264,0-4.9,0A1.939,1.939,0,0,1,.224,16.861a2.238,2.238,0,0,1-.2-.924Q0,9,.013,2.068A2,2,0,0,1,2.136.005H19.471c.8,0,1.593.014,2.39,0a2.022,2.022,0,0,1,2.114,1.7.4.4,0,0,0,.032.086Q24.005,9,24.006,16.22ZM1.8,1.03c.072.075.092.1.114.12Q6.58,5.4,11.246,9.657A1.02,1.02,0,0,0,12.8,9.628l9.21-8.4A1.7,1.7,0,0,1,22.2,1.1L22.16,1.03ZM14.31,9.615c-.314.284-.573.521-.835.754a2.241,2.241,0,0,1-1.19.605,2.086,2.086,0,0,1-1.748-.608L9.7,9.616,1.793,16.908l.039.067H22.183l.036-.069ZM1.078,1.739C.966,2.113.983,16,1.081,16.207L8.962,8.938Zm13.976,7.2,7.894,7.281c.1-.338.083-14.227-.027-14.464Z" transform="translate(0.191 0.199)" fill="#cea348" stroke="#cea348" stroke-width="0.4"/>
</svg>
