<svg xmlns="http://www.w3.org/2000/svg" width="21.572" height="26.934" viewBox="0 0 21.572 26.934">
  <g id="report_1_" data-name="report (1)" transform="translate(-186.859 46.148)">
    <path id="Union_13" data-name="Union 13" d="M17433.57,18669.621h-.047c-1.687-.008-3.434-.012-4.734-.012a2.946,2.946,0,0,1-2.975-2.775l-.014-.18-.176-.021a2.968,2.968,0,0,1-2.617-3.02c-.008-5.268-.008-10,0-14.469a3.778,3.778,0,0,1,1.385-3c.324-.277.65-.551.975-.824.525-.445,1.068-.9,1.6-1.359a3.771,3.771,0,0,1,1.984-.93c.324-.006,6.7-.035,9.957-.035l.117.027c.1.023.2.051.293.078a2.994,2.994,0,0,1,2.148,2.645l.018.2h.221l.117.031c.1.023.2.051.293.076a2.976,2.976,0,0,1,2.16,2.842c.008.465.006,8.475,0,14.324l0,3.293a3.048,3.048,0,0,1-2.312,3.1c-.107.016-1.158.021-2.615.021C17437.691,18669.633,17435.5,18669.625,17433.57,18669.621Zm-6.594-2.707a1.791,1.791,0,0,0,1.844,1.525l4.891,0c2.631,0,5.129,0,7.541,0a2.14,2.14,0,0,0,.557-.074,1.836,1.836,0,0,0,1.318-1.9q0-3.105,0-6.211v-5.078q0-3.047,0-6.1a1.806,1.806,0,0,0-1.381-1.895l-.266-.062v.277c0,2.637,0,8.215,0,12.7v3.469a3.044,3.044,0,0,1-2.312,3.094c-.23.035-4.77.02-8.418.01h-.109c-1.223,0-2.416-.006-3.453-.01h-.256Zm.785-22.09c-.773.66-1.566,1.32-2.336,1.965l-.3.248a2.616,2.616,0,0,0-.98,2.1c-.006,4.59-.006,9.318,0,14.449a1.821,1.821,0,0,0,1.393,1.852,2.187,2.187,0,0,0,.482.053h1.137c1.391,0,2.721,0,4,0,2.611,0,5.021,0,7.293,0a2.065,2.065,0,0,0,.559-.072,1.831,1.831,0,0,0,1.316-1.9v-17.389a2.539,2.539,0,0,0-.035-.426,1.776,1.776,0,0,0-1.883-1.527l-3.367,0h-.012c-1.781,0-3.621,0-5.434-.006h-.008A2.705,2.705,0,0,0,17427.762,18644.824Zm1.014,18.338h-1.838a.586.586,0,0,1-.648-.584.562.562,0,0,1,.152-.4.679.679,0,0,1,.488-.184c1.617,0,9.258,0,10.711,0a.577.577,0,0,1,.623.582.558.558,0,0,1-.158.408.638.638,0,0,1-.461.18Zm1.973-2.955c-1.1,0-2.943,0-3.775,0a.608.608,0,0,1-.539-.3.553.553,0,0,1,.01-.562.575.575,0,0,1,.545-.3c1.156,0,8.58,0,10.578,0a.582.582,0,0,1,.625.586.57.57,0,0,1-.152.4.638.638,0,0,1-.469.176c-1.125,0-5.914,0-5.914,0h-.908Zm0-2.951-3.775,0a.614.614,0,0,1-.539-.3.553.553,0,0,1,.01-.562.574.574,0,0,1,.545-.3c1.156,0,8.58,0,10.578,0a.592.592,0,0,1,.473.988.646.646,0,0,1-.469.176c-1.125,0-5.914,0-5.914,0l-.055,0Zm5.154-3.545a.769.769,0,0,1-.191-.527v-6a.67.67,0,0,1,.174-.469.552.552,0,0,1,.4-.16.572.572,0,0,1,.563.637v6c0,.4-.227.672-.562.676h-.014A.518.518,0,0,1,17435.9,18653.711Zm-2.859-.463c0-.5,0-3.842,0-4.334a.63.63,0,0,1,.178-.449.541.541,0,0,1,.385-.16h.01a.582.582,0,0,1,.564.6c0,1.113,0,3.383,0,4.336a.571.571,0,1,1-1.137.006Zm-2.672,0c0-.5,0-2.547,0-3.076a.64.64,0,0,1,.18-.451.545.545,0,0,1,.387-.158h.008a.584.584,0,0,1,.564.6c0,1.1,0,2.107,0,3.078a.572.572,0,1,1-1.139.006Zm-2.668,0c-.008-.494,0-1.289,0-1.818a.657.657,0,0,1,.18-.451.545.545,0,0,1,.387-.16h.008a.586.586,0,0,1,.566.6v.291c0,.67,0,.67,0,1.234v.3a.593.593,0,0,1-.568.625A.585.585,0,0,1,17427.7,18653.248Z" transform="translate(-17235.998 -18688.998)" fill="#cea348" stroke="#cea348" stroke-width="0.3"/>
  </g>
</svg>
