<svg xmlns="http://www.w3.org/2000/svg" width="24" height="20" viewBox="0 0 24 20">
  <path id="Union_1" data-name="Union 1" d="M14619.748,18019a2.635,2.635,0,0,1-2.747-2.5v-15a2.631,2.631,0,0,1,2.747-2.5h18.5a2.635,2.635,0,0,1,2.752,2.5v15a2.64,2.64,0,0,1-2.752,2.5Zm-1.245-2.5a1.2,1.2,0,0,0,1.245,1.137h18.5a1.2,1.2,0,0,0,1.25-1.137v-12.951h-21Zm21-14.318v-.682a1.2,1.2,0,0,0-1.25-1.137h-18.5a1.2,1.2,0,0,0-1.245,1.137v.682Zm-10.679,12.727a.683.683,0,1,1,0-1.359h7.5a.683.683,0,1,1,0,1.359Zm-7,0a.683.683,0,1,1,0-1.359h2.5a.683.683,0,1,1,0,1.359Zm7-3.637a.684.684,0,1,1,0-1.363h7.5a.685.685,0,1,1,0,1.363Zm-7,0a.685.685,0,1,1,0-1.363h2.5a.685.685,0,1,1,0,1.363Zm7-3.635a.685.685,0,1,1,0-1.365h7.5a.686.686,0,1,1,0,1.365Zm-7,0a.686.686,0,1,1,0-1.365h2.5a.686.686,0,1,1,0,1.365Z" transform="translate(-14617.001 -17999.002)" fill="#cea348"/>
</svg>
