<svg xmlns="http://www.w3.org/2000/svg" width="19.294" height="19.294" viewBox="0 0 19.294 19.294">
  <path id="Union_5" data-name="Union 5" d="M11.354,18.794a1.176,1.176,0,0,1-1.175-1.174V13.7a1.176,1.176,0,0,1,1.175-1.175h6.264A1.177,1.177,0,0,1,18.794,13.7v3.915a1.177,1.177,0,0,1-1.175,1.174Zm-.392-5.09v3.915a.392.392,0,0,0,.392.392h6.264a.392.392,0,0,0,.392-.392V13.7a.391.391,0,0,0-.392-.391H11.354A.392.392,0,0,0,10.963,13.7ZM1.174,18.793A1.177,1.177,0,0,1,0,17.618V9A1.177,1.177,0,0,1,1.174,7.83H7.439A1.177,1.177,0,0,1,8.614,9v8.614a1.177,1.177,0,0,1-1.174,1.174ZM.783,9v8.614a.392.392,0,0,0,.391.392H7.439a.392.392,0,0,0,.391-.392V9a.392.392,0,0,0-.391-.392H1.174A.392.392,0,0,0,.783,9Zm10.571,1.958A1.176,1.176,0,0,1,10.18,9.788V1.174A1.176,1.176,0,0,1,11.354,0h6.264a1.177,1.177,0,0,1,1.175,1.174V9.788a1.177,1.177,0,0,1-1.175,1.174Zm-.392-9.788V9.788a.392.392,0,0,0,.392.391h6.264a.392.392,0,0,0,.392-.391V1.174a.392.392,0,0,0-.392-.391H11.354A.392.392,0,0,0,10.963,1.174ZM1.174,6.265A1.177,1.177,0,0,1,0,5.089V1.174A1.177,1.177,0,0,1,1.174,0H7.439A1.177,1.177,0,0,1,8.614,1.174V5.089A1.177,1.177,0,0,1,7.439,6.265ZM.783,1.174V5.089a.392.392,0,0,0,.391.391H7.439a.392.392,0,0,0,.391-.391V1.174A.392.392,0,0,0,7.439.783H1.174A.392.392,0,0,0,.783,1.174Z" transform="translate(0.25 0.25)" fill="#fff" stroke="#fff" stroke-width="0.5"/>
</svg>
